<svg xmlns="http://www.w3.org/2000/svg" width="48" height="48" viewBox="0 0 48 48"><path fill="#673AB7" d="M34.695 19c0 0 10.617-2.249 4.305-15-1.822 2.277-5.392 4.016-7 6.988-.856 1.584-1.321 3.802-.303 6.012L34.695 19zM13.309 19c0 0-10.617-2.249-4.305-15 1.822 2.277 5.392 4.016 7 6.988.856 1.584 1.321 3.802.303 6.012L13.309 19z"/><path fill="#7E57C2" d="M24,31c-6.075,0-11-4.924-11-11S17.925,9,24,9s11,4.924,11,11S30.075,31,24,31"/><path fill="#7E57C2" d="M41,34c0,4.971-7.611,9-17,9S7,38.971,7,34c0-7,7.611-20,17-20S41,27,41,34z"/><path fill="#5E35B1" d="M24 34A4 2.5 0 1 0 24 39 4 2.5 0 1 0 24 34zM20 27c0 0-3.608.342-4.975-1.025C13.658 24.608 14 21 14 21s2.634-2.367 4-1C19.367 21.366 20 27 20 27zM28 27c0 0 3.608.342 4.975-1.025C34.342 24.608 34 21 34 21s-2.634-2.367-4-1C28.633 21.366 28 27 28 27z"/><g><path fill="#EEFF41" d="M17 21A2 2 0 1 0 17 25 2 2 0 1 0 17 21zM31 21A2 2 0 1 0 31 25 2 2 0 1 0 31 21z"/></g><g><path fill="#212121" d="M17 22A1 1 0 1 0 17 24 1 1 0 1 0 17 22zM31 22A1 1 0 1 0 31 24 1 1 0 1 0 31 22z"/></g><path fill="#B39DDB" d="M31,33.5c0,3.59-3.134,3.5-7,3.5s-7,0.09-7-3.5s3.134-6.5,7-6.5S31,29.91,31,33.5z"/><g><path fill="#311B92" d="M14.265 14.887c-.768-.87-1.908-1.886-2.265-1.886-.553 0-1 .448-1 1s.447 1 1 1c.295 0 1.13.441 1.845.77C13.971 15.468 14.113 15.175 14.265 14.887zM36 13.001c-.356 0-1.497 1.016-2.265 1.886.151.288.294.582.42.884.715-.328 1.55-.77 1.845-.77.553 0 1-.448 1-1S36.553 13.001 36 13.001zM21 32A1 1 0 1 0 21 34 1 1 0 1 0 21 32zM27 32A1 1 0 1 0 27 34 1 1 0 1 0 27 32zM20 27c-2-5-6-6-6-6s2.634-2.367 4-1C19.367 21.366 20 27 20 27zM28 27c2-5 6-6 6-6s-2.634-2.367-4-1C28.633 21.366 28 27 28 27z"/></g></svg>