<svg xmlns="http://www.w3.org/2000/svg" viewBox="0 0 60 60"><path fill="#d6e6e7" d="M35,38l9.875,3.235a14.041,14.041,0,0,1,9.558,11.431l.549,4.07A2.008,2.008,0,0,1,52.977,59H7.023a2.008,2.008,0,0,1-2-2.264l.549-4.07a14.041,14.041,0,0,1,9.558-11.431L25,38Z"/><path fill="#476168" d="M52.98,59H7.02a2.008,2.008,0,0,1-2-2.26L5.39,54H54.61l.37,2.74A2.008,2.008,0,0,1,52.98,59Z"/><path fill="#476168" d="M52.92,48H7.08a14.03,14.03,0,0,1,6.19-6H46.73A14.03,14.03,0,0,1,52.92,48Z"/><path fill="#476168" d="M42,11v1H18V11A10,10,0,0,1,28,1h4A10,10,0,0,1,42,11Z"/><path fill="#d7af98" d="M35,36.36V38h0c0,4-2.883,5-5,5s-5-1-5-5h0V36.36Z"/><path fill="#e7c1a7" d="M42,26l-.53,3.17a7.522,7.522,0,0,1-3.19,4.99C36.25,35.53,33.27,38,30,38s-6.25-2.47-8.28-3.84a7.522,7.522,0,0,1-3.19-4.99L18,26l12-3Z"/><path fill="#476168" d="M45,23a3,3,0,0,1-3,3s-2.25,1-7,1a5.523,5.523,0,0,1-3.73-1.25,1.967,1.967,0,0,0-2.54,0A5.523,5.523,0,0,1,25,27c-4.75,0-7-1-7-1a3,3,0,0,1,0-6s-.2-1.01-.43-3.22c-.04-.43-.06-.85-.06-1.28,0-.17,0-.33.01-.5L18,14H42l.48,1a11.838,11.838,0,0,1-.05,1.78C42.2,18.99,42,20,42,20A3,3,0,0,1,45,23Z"/><rect width="28" height="4" x="16" y="11" fill="#3c5156" rx="1"/><ellipse cx="24.5" cy="21" fill="#e7c1a7" rx="2.5" ry="2"/><ellipse cx="35.5" cy="21" fill="#e7c1a7" rx="2.5" ry="2"/><path fill="#373737" d="M55.425,52.532A15.137,15.137,0,0,0,45.187,40.285L36,37.275v-.359c.7-.441,1.353-.894,1.938-1.307.316-.222.616-.434.9-.624a8.531,8.531,0,0,0,3.621-5.65l.406-2.429a4,4,0,0,0,.284-7.738c.079-.538.175-1.295.279-2.287.032-.316.052-.632.062-.948A2,2,0,0,0,45,14V12a2,2,0,0,0-2-2h-.051A11.01,11.01,0,0,0,32,0H28A11.01,11.01,0,0,0,17.051,10H17a2,2,0,0,0-2,2v2a2,2,0,0,0,1.531,1.938c.009.313.014.623.044.946.1.991.2,1.746.278,2.284a4,4,0,0,0,.285,7.738l.378,2.259A1,1,0,0,0,18.5,30a.938.938,0,0,0,.166-.014,1,1,0,0,0,.821-1.151l-.237-1.418A25.436,25.436,0,0,0,25,28a6.528,6.528,0,0,0,4.383-1.492.96.96,0,0,1,1.236,0A6.528,6.528,0,0,0,35,28a25.436,25.436,0,0,0,5.749-.583l-.266,1.588a6.518,6.518,0,0,1-2.767,4.322c-.291.2-.6.416-.931.648C34.873,35.322,32.494,37,30,37s-4.873-1.678-6.785-3.025c-.328-.232-.64-.451-.932-.648a6.413,6.413,0,0,1-1.491-1.4,1,1,0,1,0-1.584,1.222,8.424,8.424,0,0,0,1.957,1.834c.281.19.581.4.9.624.585.413,1.238.866,1.938,1.307v.359l-9.188,3.01A15.137,15.137,0,0,0,4.575,52.532L4.027,56.6a2.988,2.988,0,0,0,.713,2.364A3.03,3.03,0,0,0,7.023,60H52.977a3.03,3.03,0,0,0,2.283-1.034,2.988,2.988,0,0,0,.713-2.364ZM40.941,10H35.966a18.352,18.352,0,0,0-1.852-7.739A9.012,9.012,0,0,1,40.941,10ZM28.477,2h3.046c1.375,1.571,2.292,4.585,2.444,8H26.033C26.185,6.585,27.1,3.571,28.477,2Zm-2.591.261A18.352,18.352,0,0,0,24.034,10H19.059A9.012,9.012,0,0,1,25.886,2.261ZM17,12H43l0,2H17ZM31.922,24.992a2.965,2.965,0,0,0-3.842,0A4.588,4.588,0,0,1,25,26a18.458,18.458,0,0,1-6.6-.916l0,.008A.976.976,0,0,0,18,25a2,2,0,0,1,0-4,1,1,0,0,0,.981-1.193c0-.01-.2-1.008-.415-3.119-.021-.232-.023-.46-.032-.688H41.479c-.009.226-.021.452-.044.677-.22,2.122-.414,3.12-.416,3.13A1,1,0,0,0,42,21a2,2,0,0,1,0,4,.976.976,0,0,0-.4.092l0-.008A18.458,18.458,0,0,1,35,26,4.589,4.589,0,0,1,31.922,24.992Zm3.965,14.351L40.944,41H35.371A6.021,6.021,0,0,0,35.887,39.343ZM34,38.013C33.993,41.481,31.492,42,30,42s-3.993-.519-4-3.987A9.528,9.528,0,0,0,30,39,9.528,9.528,0,0,0,34,38.013ZM24.629,41H19.055l5.058-1.657A6.021,6.021,0,0,0,24.629,41ZM13.518,43H26.375a7.07,7.07,0,0,0,7.25,0H46.482a13.224,13.224,0,0,1,4.633,4H8.885A13.215,13.215,0,0,1,13.518,43ZM7.7,49H52.3a12.743,12.743,0,0,1,1.146,3.8l.027.2H6.531l.027-.2A12.743,12.743,0,0,1,7.7,49Zm46.05,8.649a1.014,1.014,0,0,1-.777.351H7.023a1.014,1.014,0,0,1-.777-.351.968.968,0,0,1-.236-.78L6.261,55H53.739l.251,1.869A.968.968,0,0,1,53.754,57.649Z"/><path fill="#373737" d="M24.5,18A3.283,3.283,0,0,0,21,21a3.283,3.283,0,0,0,3.5,3A3.283,3.283,0,0,0,28,21,3.283,3.283,0,0,0,24.5,18Zm0,4c-.8,0-1.5-.468-1.5-1s.7-1,1.5-1,1.5.468,1.5,1S25.3,22,24.5,22Z"/><path fill="#373737" d="M35.5,18A3.283,3.283,0,0,0,32,21a3.283,3.283,0,0,0,3.5,3A3.283,3.283,0,0,0,39,21,3.283,3.283,0,0,0,35.5,18Zm0,4c-.8,0-1.5-.468-1.5-1s.7-1,1.5-1,1.5.468,1.5,1S36.3,22,35.5,22Z"/></svg>