<svg xmlns="http://www.w3.org/2000/svg" baseProfile="basic" viewBox="0 0 120 120"><polygon points="72.838,105 61.58,88.113 57.42,90.887 66.829,105 56,105 56,110 85,110 85,105" opacity=".35"/><polygon fill="#0037ff" points="72.838,102 61.58,85.113 57.42,87.887 66.829,102 56,102 56,107 85,107 85,102"/><path d="M74.8,31.367L27.2,79.4c0,0,10.067,17.6,38.898,17.6c18.862,0,33.766-15.999,32.43-34.814	L96.4,32.208L74.8,31.367z" opacity=".35"/><path fill="#52afff" d="M74.8,27.367L27.2,75.4c0,0,10.067,17.6,38.898,17.6c18.862,0,33.766-15.999,32.43-34.814	L96.4,28.208L74.8,27.367z"/><path d="M69.5,77.8L41.151,96.976c-9.768,6.475-22.404,6.7-32.396,0.577L7,96.478L36.356,73" opacity=".35"/><polygon points="100,39 100,27 115,33" opacity=".35"/><polygon fill="#0037ff" points="100,36 100,24 115,30"/><circle cx="83.5" cy="30.5" r="18.5" fill="#52afff"/><path fill="#0037ff" d="M63.5,78.162L41.151,92.976c-9.768,6.475-22.404,6.7-32.396,0.577L7,92.478L36.356,69L63.5,78.162"/><circle cx="89.5" cy="26.5" r="4.5" fill="#0037ff"/><path fill="#ffc400" d="M98.528,58.186L97.427,42.67l0,0c0,0-13.927,5.73-21.227,2.93c-9.62,5.607-21.23,27.782,3.55,44.397	C91.591,84.509,99.518,72.124,98.528,58.186z"/><path d="M82.083,69.355c1.816-3.136,2.905-6.788,2.905-10.943c0-0.465-0.012-0.922-0.034-1.372	c-0.762-15.21-19.295-22.456-30.681-12.289L42.868,54.833l0,0L11,83h45.755c0.504,0,1.016-0.02,1.531-0.049	c0.13-0.007,0.259-0.016,0.389-0.025c0.129-0.009,0.256-0.014,0.385-0.025c0.004,0,0.009,0,0.013-0.001	c0.363-0.031,0.729-0.07,1.096-0.115c0.024-0.003,0.048-0.005,0.073-0.008c0.395-0.049,0.792-0.107,1.19-0.172	c0.005-0.001,0.01-0.001,0.016-0.002c0.13-0.021,0.261-0.048,0.391-0.071c0.122-0.022,0.244-0.045,0.366-0.068	c0.509-0.097,1.02-0.203,1.531-0.326c0.028-0.007,0.055-0.012,0.083-0.019c0.007-0.002,0.014-0.003,0.02-0.005	c0.004-0.001,0.007-0.002,0.011-0.003c0.54-0.132,1.079-0.282,1.618-0.443c0.097-0.029,0.193-0.059,0.29-0.089	c0.534-0.165,1.066-0.34,1.595-0.533c0.012-0.004,0.025-0.008,0.037-0.013c0.563-0.206,1.121-0.43,1.675-0.668	c0.063-0.027,0.125-0.055,0.188-0.082c1.116-0.487,2.211-1.037,3.271-1.653c0.027-0.016,0.054-0.032,0.081-0.048	C76.453,76.334,79.83,73.245,82.083,69.355C82.083,69.356,82.083,69.356,82.083,69.355L82.083,69.355z" opacity=".35"/><path fill="#a4e2f1" d="M11,79l43.273-38.248c11.386-10.167,29.919-2.92,30.681,12.289c0.023,0.449,0.034,0.907,0.034,1.372	C84.988,70.394,68.98,79,56.755,79H11z"/><path fill="#52afff" d="M50.618,43.983L11,79h45.755c9.046,0,20.158-4.717,25.328-13.645	C61.625,60.434,53.453,49.326,50.618,43.983z"/><path fill="#0075ff" d="M56.755,79c6.069,0,13.069-2.123,18.582-6.215C55.8,66.938,46.795,57.101,42.868,50.833L11,79H56.755	z"/></svg>