<svg xmlns="http://www.w3.org/2000/svg" data-name="Layer 1" viewBox="0 0 64 64"><path fill="#f9dd8f" d="M6,19H17a0,0,0,0,1,0,0V45a0,0,0,0,1,0,0H6a3,3,0,0,1-3-3V22A3,3,0,0,1,6,19Z"/><path fill="#f5c872" d="M6,19H8a0,0,0,0,1,0,0V45a0,0,0,0,1,0,0H6a3,3,0,0,1-3-3V22A3,3,0,0,1,6,19Z"/><path fill="#c2cde7" d="M39 59L17 45 17 19 39 5 39 59z"/><path fill="#ced8ed" d="M17 23L17 26 39 17 39 11 17 23z"/><path fill="#b5c4e0" d="M39,59,17,45V38.93A3,3,0,0,1,20.79,36l13.79,3.76A6,6,0,0,1,39,45.58Z"/><rect width="62" height="4" x="10" y="30" fill="#f9dd8f" rx="2" ry="2" transform="rotate(-90 41 32)"/><path fill="#8d6c9f" d="M41,0a3,3,0,0,0-3,3V4.45L16.71,18H7a5,5,0,0,0-5,5V41a5,5,0,0,0,5,5h9.71L38,59.55V61a3,3,0,0,0,6,0V3A3,3,0,0,0,41,0ZM4,41V23a3,3,0,0,1,3-3h9V44H7A3,3,0,0,1,4,41Zm14,3.45V19.55L22,17V35a1,1,0,0,0,2,0V16a1,1,0,0,0,0-.24L38,6.82V57.18ZM42,61a1,1,0,0,1-2,0V3a1,1,0,0,1,2,0Z"/><path fill="#8d6c9f" d="M9 21H7a1 1 0 0 0 0 2H9a1 1 0 1 0 0-2zM9 26H7a1 1 0 0 0 0 2H9a1 1 0 1 0 0-2zM9 31H7a1 1 0 1 0 0 2H9a1 1 0 0 0 0-2zM9 36H7a1 1 0 1 0 0 2H9a1 1 0 0 0 0-2zM9 41H7a1 1 0 1 0 0 2H9a1 1 0 0 0 0-2zM23 38a1 1 0 0 0-1 1v4a1 1 0 0 0 2 0V39A1 1 0 0 0 23 38zM51.25 18a1 1 0 1 0-1.59 1.22 21 21 0 0 1 0 25.56A1 1 0 1 0 51.25 46a23 23 0 0 0 0-28z"/><path fill="#8d6c9f" d="M47.82,23.67a1,1,0,0,0-1.74,1,15,15,0,0,1,.11,14.5,1,1,0,0,0,1.76,1,17,17,0,0,0-.12-16.43Z"/></svg>