<svg xmlns="http://www.w3.org/2000/svg" viewBox="0 0 64 64"><g data-name="13-rottweiler"><path fill="#414952" d="M61,12.14v4.97a8.081,8.081,0,0,1-.84,3.58l-4.65,9.29A1.854,1.854,0,0,1,52,29.15V18.73a7.893,7.893,0,0,0-.72-3.31L48.33,6.94A1.414,1.414,0,0,0,47,6a2.015,2.015,0,0,1-2-2V3l2.28-.57a4.032,4.032,0,0,1,3.19.55l8.75,5.83A4,4,0,0,1,61,12.14Z"/><path fill="#333940" d="M59,58.4V63H5V58.4a10.251,10.251,0,0,1,.38-2.75l.66-2.28a10.94,10.94,0,0,1,3.7-5.56,11.107,11.107,0,0,0,3.34-4.5l.81-2.04L22,51l7,2h6l7-2,8.11-9.73.81,2.04a11.107,11.107,0,0,0,3.34,4.5,10.94,10.94,0,0,1,3.7,5.56l.66,2.28A10.251,10.251,0,0,1,59,58.4Z"/><path fill="#e6ab69" d="M13.89,41.27l-.96-1.16A3.989,3.989,0,0,1,12,37.55V36.33a4.024,4.024,0,0,1,.8-2.4l2.01-2.68L15,32l5.01,7.51C20.12,42.43,21.17,46,24,46c3,0,6-3,6-3h4s3,3,6,3c2.83,0,3.88-3.57,3.99-6.49L49,32l.19-.75,2.01,2.68a4.024,4.024,0,0,1,.8,2.4v1.22a3.989,3.989,0,0,1-.93,2.56l-.96,1.16L42,51l-7,2H29l-7-2Z"/><path fill="#414952" d="M20.01,39.51,15,32l-.19-.75L12,20V18.73a7.893,7.893,0,0,1,.72-3.31l2.95-8.48A1.414,1.414,0,0,1,17,6a2.006,2.006,0,0,0,2-2V3l3.84-1.28A13.935,13.935,0,0,1,27.27,1h9.46a13.935,13.935,0,0,1,4.43.72L45,3V4a2.015,2.015,0,0,0,2,2,1.414,1.414,0,0,1,1.33.94l2.95,8.48A7.893,7.893,0,0,1,52,18.73V20L49.19,31.25,49,32l-5.01,7.51-.81,1.22A15.182,15.182,0,0,0,44,35c0-7.74-5.37-14-12-14S20,27.26,20,35a15.182,15.182,0,0,0,.82,5.73ZM44,19c0-1.66-.9-3-2-3s-2,1.34-2,3,.9,3,2,3S44,20.66,44,19Zm-2-7c0-1.1-1.34-2-3-2s-3,.9-3,2,1.34,2,3,2S42,13.1,42,12ZM28,12c0-1.1-1.34-2-3-2s-3,.9-3,2,1.34,2,3,2S28,13.1,28,12Zm-4,7c0-1.66-.9-3-2-3s-2,1.34-2,3,.9,3,2,3S24,20.66,24,19Z"/><path fill="#2a2e33" d="M43.18,40.73l.81-1.22C43.88,42.43,42.83,46,40,46c-3,0-6-3-6-3h.34a4,4,0,0,0,2.83-1.17L38,41l.04-.02C38.6,42.12,39.29,43,40,43A3.246,3.246,0,0,0,43.18,40.73Z"/><ellipse cx="42" cy="19" fill="#e6ab69" rx="2" ry="3"/><path fill="#e6ab69" d="M20.82,40.73A15.182,15.182,0,0,1,20,35c0-7.74,5.37-14,12-14s12,6.26,12,14a15.182,15.182,0,0,1-.82,5.73A3.246,3.246,0,0,1,40,43c-.71,0-1.4-.88-1.96-2.02A14.107,14.107,0,0,1,37,38l-2-3-3-1-3,1-2,3a14.107,14.107,0,0,1-1.04,2.98C25.4,42.12,24.71,43,24,43A3.246,3.246,0,0,1,20.82,40.73Zm6.23-10.75a1.264,1.264,0,0,0,.9.94L32,32l4.05-1.08a1.264,1.264,0,0,0,.9-.94,1.345,1.345,0,0,0,.05-.35V28c0-2.21-2.24-4-5-4s-5,1.79-5,4v1.63A1.345,1.345,0,0,0,27.05,29.98Z"/><ellipse cx="39" cy="12" fill="#e6ab69" rx="3" ry="2"/><path fill="#414952" d="M38.04,40.98,38,41l-.83.83A4,4,0,0,1,34.34,43H29.66a4,4,0,0,1-2.83-1.17L26,41l-.04-.02A14.107,14.107,0,0,0,27,38l1.58.79a1.974,1.974,0,0,0,.89.21h5.06a1.974,1.974,0,0,0,.89-.21L37,38A14.107,14.107,0,0,0,38.04,40.98Z"/><path fill="#414952" d="M27.05,29.98a1.345,1.345,0,0,1-.05-.35V28c0-2.21,2.24-4,5-4s5,1.79,5,4v1.63a1.345,1.345,0,0,1-.05.35,1.264,1.264,0,0,1-.9.94L32,32l-4.05-1.08A1.264,1.264,0,0,1,27.05,29.98Z"/><path fill="#fafcff" d="M35,35l2,3-1.58.79a1.974,1.974,0,0,1-.89.21H34Z"/><polygon fill="#e68d79" points="35 35 34 39 30 39 29 35 32 34 35 35"/><path fill="#fafcff" d="M29,35l1,4h-.53a1.974,1.974,0,0,1-.89-.21L27,38Z"/><path fill="#2a2e33" d="M29.66,43H30s-3,3-6,3c-2.83,0-3.88-3.57-3.99-6.49l.81,1.22A3.246,3.246,0,0,0,24,43c.71,0,1.4-.88,1.96-2.02L26,41l.83.83A4,4,0,0,0,29.66,43Z"/><ellipse cx="25" cy="12" fill="#e6ab69" rx="3" ry="2"/><ellipse cx="22" cy="19" fill="#e6ab69" rx="2" ry="3"/><path fill="#414952" d="M19,3V4a2.006,2.006,0,0,1-2,2,1.414,1.414,0,0,0-1.33.94l-2.95,8.48A7.893,7.893,0,0,0,12,18.73V29.15a1.854,1.854,0,0,1-3.51.83L3.84,20.69A8.081,8.081,0,0,1,3,17.11V12.14A4,4,0,0,1,4.78,8.81l8.75-5.83a4.032,4.032,0,0,1,3.19-.55Z"/><path fill="#2a2e33" d="M34,28.279V28a1,1,0,0,0-1-1H31a1,1,0,0,0-1,1v.279a1,1,0,0,1-.684.949l-2.265.755a1.264,1.264,0,0,0,.9.937L32,32l4.05-1.08a1.264,1.264,0,0,0,.9-.937l-2.265-.755A1,1,0,0,1,34,28.279Z"/><path fill="#414952" d="M20.559,45.934l-3.836-5.48a4,4,0,0,1,.154-4.793l.308-.386L15,32l-.19-.75L12.8,33.93a4.024,4.024,0,0,0-.8,2.4v1.22a3.989,3.989,0,0,0,.93,2.56l.96,1.16L22,51l0,0v-.48A8,8,0,0,0,20.559,45.934Z"/><path fill="#414952" d="M51.2,33.93l-2.01-2.68L49,32l-2.183,3.272.312.389a4,4,0,0,1,.153,4.793l-3.836,5.48A8,8,0,0,0,42,50.522V51l8.11-9.73.96-1.16A3.989,3.989,0,0,0,52,37.55V36.33A4.024,4.024,0,0,0,51.2,33.93Z"/><path fill="#555a66" d="M37,28c0-2.21-2.24-4-5-4s-5,1.79-5,4v1.63a1.127,1.127,0,0,0,.025.173c.131-2.116,2.3-3.8,4.975-3.8s4.844,1.687,4.975,3.8A1.127,1.127,0,0,0,37,29.63Z"/><path fill="#b58753" d="M36.05,30.92,32,32l-4.05-1.08a1.264,1.264,0,0,1-.9-.94,1.639,1.639,0,0,1-.025-.177c0,.067-.025.13-.025.2v1.63a1.345,1.345,0,0,0,.05.35,1.264,1.264,0,0,0,.9.94L32,34l4.05-1.08a1.264,1.264,0,0,0,.9-.94,1.345,1.345,0,0,0,.05-.35V30c0-.067-.021-.13-.025-.2a1.639,1.639,0,0,1-.025.177A1.264,1.264,0,0,1,36.05,30.92Z"/><polygon fill="#c76f5f" points="34.538 36.846 35 35 32 34 29 35 29.462 36.846 32 36 34.538 36.846"/><path fill="#ffbe74" d="M31.989,24h.025a14.6,14.6,0,0,1,10.551,4.373C40.54,23.984,36.573,21,32,21c-4.592,0-8.571,3.01-10.587,7.429A14.584,14.584,0,0,1,31.989,24Z"/><path fill="#cf9a5e" d="M35.042,33.736a7.469,7.469,0,0,1,3.777,4.114,4.844,4.844,0,0,0,4.243,3.127c.039-.083.082-.16.118-.247A15.182,15.182,0,0,0,44,35a16.009,16.009,0,0,0-.929-5.409C41.6,31.6,38.523,33.147,35.042,33.736Z"/><path fill="#414952" d="M38.819,37.85a7.472,7.472,0,0,0-5.105-4.6A.981.981,0,0,1,33,32.29v-.557l-.969.259-.969-.259v.557a.981.981,0,0,1-.714.956,7.472,7.472,0,0,0-5.105,4.6A4.844,4.844,0,0,1,21,40.977,3.183,3.183,0,0,0,24.062,43c.71,0,1.4-.88,1.96-2.02A14.107,14.107,0,0,0,27.062,38l2-3,2.969-.99L35,35l2,3a14.107,14.107,0,0,0,1.04,2.98C38.6,42.12,39.29,43,40,43a3.183,3.183,0,0,0,3.062-2.023A4.844,4.844,0,0,1,38.819,37.85Z"/><path fill="#2a2e33" d="M37,38l-1.58.79a1.974,1.974,0,0,1-.89.21H29.47a1.974,1.974,0,0,1-.89-.21L27,38a14.107,14.107,0,0,1-1.04,2.98L26,41l.83.83a3.811,3.811,0,0,0,.335.274l.248-1.343a1.61,1.61,0,0,1,2.247-.931,1.608,1.608,0,0,0,.72.17h3.24a1.608,1.608,0,0,0,.72-.17,1.61,1.61,0,0,1,2.247.931l.248,1.343a3.811,3.811,0,0,0,.335-.274L38,41l.04-.02A14.107,14.107,0,0,1,37,38Z"/><path fill="#2a2e33" d="M58.592,22.171A1.981,1.981,0,0,1,55,21.019v-.383a12.01,12.01,0,0,0-1.1-5.029l-4.47-9.683A1.59,1.59,0,0,0,47.983,5a1.588,1.588,0,0,1-1.422-.879L46.186,2.7,45,3V4a2.015,2.015,0,0,0,2,2,1.414,1.414,0,0,1,1.33.94l2.95,8.48A7.893,7.893,0,0,1,52,18.73V29.15a1.854,1.854,0,0,0,3.51.83l4.65-9.29a8.116,8.116,0,0,0,.55-1.484Z"/><path fill="#2a2e33" d="M17.439,4.121A1.588,1.588,0,0,1,16.017,5a1.59,1.59,0,0,0-1.443.924L10.1,15.607A12.01,12.01,0,0,0,9,20.636v.383a1.981,1.981,0,0,1-3.592,1.152L3.29,19.206a8.116,8.116,0,0,0,.55,1.484l4.65,9.29A1.854,1.854,0,0,0,12,29.15V18.73a7.893,7.893,0,0,1,.72-3.31l2.95-8.48A1.414,1.414,0,0,1,17,6a2.006,2.006,0,0,0,2-2V3l-1.186-.3Z"/><path fill="#555a66" d="M26.984,3h9.969a15.407,15.407,0,0,1,4.668.72l3.584,1.134A1.917,1.917,0,0,1,45,4V3L41.16,1.72A13.935,13.935,0,0,0,36.73,1H27.27a13.935,13.935,0,0,0-4.43.72L19,3V4a2.08,2.08,0,0,1-.024.239L19.06,4l-.084.239a2.024,2.024,0,0,1-.178.594L22.316,3.72A15.4,15.4,0,0,1,26.984,3Z"/><path fill="#333940" d="M51.28,15.42,48.33,6.94A1.414,1.414,0,0,0,47,6a1.955,1.955,0,0,1-1.41-.59,1.915,1.915,0,0,1-.159-.189l4.164,11.8a7.9,7.9,0,0,1-2.575,8.936A9.918,9.918,0,0,1,42.333,27.9,15.711,15.711,0,0,1,44,35a15.182,15.182,0,0,1-.82,5.73l.81-1.22L49,32l.19-.75L52,20V18.73A7.893,7.893,0,0,0,51.28,15.42Z"/><path fill="#333940" d="M14.465,17.019,18.683,5.07A2,2,0,0,1,17,6a1.414,1.414,0,0,0-1.33.94l-2.95,8.48A7.893,7.893,0,0,0,12,18.73V20l2.81,11.25L15,32l5.01,7.51.81,1.22A15.182,15.182,0,0,1,20,35a15.718,15.718,0,0,1,1.671-7.1,9.916,9.916,0,0,1-4.631-1.94A7.9,7.9,0,0,1,14.465,17.019Z"/><path fill="#cf9a5e" d="M21,40.977a4.844,4.844,0,0,0,4.243-3.127,7.462,7.462,0,0,1,3.309-3.864c-4.03-.14-7.253-2.134-7.524-4.645A15.936,15.936,0,0,0,20,35a15.182,15.182,0,0,0,.82,5.73A3.246,3.246,0,0,0,24,43l.018,0A3.18,3.18,0,0,1,21,40.977Z"/><path fill="#333940" d="M19.681,44.679a6.137,6.137,0,0,0,2.018,3.71,7.985,7.985,0,0,0-1.14-2.455Z"/><path fill="#2a2e33" d="M14.15,35l1.889,2.7a3.979,3.979,0,0,1,.838-2.036l.308-.386L15,32l-.19-.75-1.22,1.626.361,1.374Z"/><path fill="#2a2e33" d="M49,32l-2.183,3.272.312.389a3.974,3.974,0,0,1,.836,2.03L49.85,35l.2-.75.361-1.374L49.19,31.25Z"/><path fill="#333940" d="M42.308,48.383a6.137,6.137,0,0,0,2.009-3.693l-.871,1.244A8.006,8.006,0,0,0,42.308,48.383Z"/><path fill="#cf9a5e" d="M16.039,37.7l3.372,4.813a12.757,12.757,0,0,0,.27,2.169l.878,1.255a7.985,7.985,0,0,1,1.14,2.455A3.143,3.143,0,0,0,23.6,49c3.15,0,6.3-3,6.3-3h4.2s3.15,3,6.3,3a3.138,3.138,0,0,0,1.908-.617,8.006,8.006,0,0,1,1.138-2.449l.871-1.244a12.788,12.788,0,0,0,.272-2.18l3.376-4.819a3.974,3.974,0,0,0-.836-2.03l-.312-.389L43.99,39.51C43.88,42.43,42.83,46,40,46c-3,0-6-3-6-3H30s-3,3-6,3c-2.83,0-3.88-3.57-3.99-6.49l-2.825-4.235-.308.386A3.979,3.979,0,0,0,16.039,37.7Z"/><path fill="#2a2e33" d="M33,56c10.136,0,18.447-5.47,21.617-7.881-.118-.1-.234-.211-.357-.309a11.107,11.107,0,0,1-3.34-4.5l-.81-2.04L42,51l-7,2H29l-7-2-8.11-9.73-.81,2.04a11.107,11.107,0,0,1-3.34,4.5c-.123.1-.239.2-.357.309C12.553,50.53,20.864,56,31,56Z"/><path fill="#414952" d="M9.324,55.65l.562-2.28a11.6,11.6,0,0,1,1.646-3.732c-.862-.57-1.59-1.094-2.149-1.519A10.928,10.928,0,0,0,6.04,53.37l-.66,2.28A10.251,10.251,0,0,0,5,58.4V63H9V58.4A11.925,11.925,0,0,1,9.324,55.65Z"/><path fill="#414952" d="M58.62,55.65l-.66-2.28a10.928,10.928,0,0,0-3.343-5.251c-.559.425-1.287.949-2.149,1.519a11.587,11.587,0,0,1,1.646,3.732l.562,2.28A11.925,11.925,0,0,1,55,58.4V63h4V58.4A10.251,10.251,0,0,0,58.62,55.65Z"/><circle cx="37.5" cy="34.5" r=".5" fill="#414952"/><circle cx="39.5" cy="35.5" r=".5" fill="#414952"/><circle cx="38.5" cy="31.5" r=".5" fill="#414952"/><circle cx="39.5" cy="33.5" r=".5" fill="#414952"/><circle cx="41.5" cy="35.5" r=".5" fill="#414952"/><circle cx="42.5" cy="33.5" r=".5" fill="#414952"/><circle cx="25.5" cy="34.5" r=".5" fill="#414952"/><circle cx="24.5" cy="36.5" r=".5" fill="#414952"/><circle cx="25.5" cy="31.5" r=".5" fill="#414952"/><circle cx="23.5" cy="32.5" r=".5" fill="#414952"/><circle cx="22.5" cy="35.5" r=".5" fill="#414952"/><circle cx="21.5" cy="33.5" r=".5" fill="#414952"/><ellipse cx="33.682" cy="25.708" fill="#f6fafd" rx=".825" ry="1.148" transform="rotate(-45.02 33.682 25.708)"/><ellipse cx="42.427" cy="19.208" fill="#f6fafd" rx=".413" ry=".574" transform="rotate(-45.02 42.427 19.208)"/><ellipse cx="31.427" cy="25.208" fill="#f6fafd" rx=".413" ry=".574" transform="rotate(-45.02 31.427 25.209)"/><ellipse cx="21.427" cy="19.208" fill="#f6fafd" rx=".574" ry=".413" transform="rotate(-44.98 21.428 19.209)"/><path d="M43,12c0-1.682-1.757-3-4-3s-4,1.318-4,3,1.757,3,4,3S43,13.682,43,12Zm-4,1c-1.221,0-2-.592-2-1s.779-1,2-1,2,.592,2,1S40.221,13,39,13Z"/><path d="M42,23c1.682,0,3-1.757,3-4s-1.318-4-3-4-3,1.757-3,4S40.318,23,42,23Zm0-6c.408,0,1,.779,1,2s-.592,2-1,2-1-.779-1-2S41.592,17,42,17Z"/><path d="M29,12c0-1.682-1.757-3-4-3s-4,1.318-4,3,1.757,3,4,3S29,13.682,29,12Zm-6,0c0-.408.779-1,2-1s2,.592,2,1-.779,1-2,1S23,12.408,23,12Z"/><path d="M19,19c0,2.243,1.318,4,3,4s3-1.757,3-4-1.318-4-3-4S19,16.757,19,19Zm4,0c0,1.221-.592,2-1,2s-1-.779-1-2,.592-2,1-2S23,17.779,23,19Z"/><path d="M59.773,7.98,51.027,2.149a5.012,5.012,0,0,0-3.986-.69l-2,.5L41.471.77A14.968,14.968,0,0,0,36.728,0H27.272a14.979,14.979,0,0,0-4.744.77L18.96,1.959l-2-.5a5.013,5.013,0,0,0-3.986.69L4.227,7.98A4.992,4.992,0,0,0,2,12.141v4.97a9.05,9.05,0,0,0,.95,4.025l4.643,9.287A2.854,2.854,0,0,0,13,29.146V28.124l.727,2.907L12,33.334a5.027,5.027,0,0,0-1,3v1.219a5.015,5.015,0,0,0,1.159,3.2l9.073,10.888a1.01,1.01,0,0,0,.493.321l7,2A1.02,1.02,0,0,0,29,54h6a1.02,1.02,0,0,0,.275-.038l7-2a1.01,1.01,0,0,0,.493-.321l9.073-10.888A5.015,5.015,0,0,0,53,37.552V36.333a5.027,5.027,0,0,0-1-3l-1.727-2.3L51,28.124v1.022a2.854,2.854,0,0,0,5.407,1.276l.988-1.975-1.79-.894-.986,1.974A.854.854,0,0,1,53,29.146V18.733a8.752,8.752,0,0,0-.773-3.639l-.148-.427-1.889.658.183.511a6.96,6.96,0,0,1,.627,2.9v1.143L48.072,31.589l-3.086,4.629C45,35.755,45,35.337,45,35c0-8.271-5.832-15-13-15S19,26.729,19,35c0,.337,0,.756.014,1.219l-.182-.274-2.9-4.356L13,19.876V18.733a7.126,7.126,0,0,1,.662-2.982l.147-.421-1.889-.659-.113.337A8.933,8.933,0,0,0,11,18.733V29.146a.854.854,0,0,1-1.618.382L4.739,20.242A7.031,7.031,0,0,1,4,17.111v-4.97a2.993,2.993,0,0,1,1.336-2.5l8.747-5.832A3,3,0,0,1,16.474,3.4L18,3.781V4a1,1,0,0,1-1,1,2.409,2.409,0,0,0-2.273,1.615L14.01,8.671l1.889.658.716-2.055A.408.408,0,0,1,17,7a3,3,0,0,0,3-3V3.721l3.161-1.054A13,13,0,0,1,27.272,2h9.456a13,13,0,0,1,4.111.667L44,3.721V4a3,3,0,0,0,3,3,.409.409,0,0,1,.385.273l2.108,6.052,1.889-.658L49.273,6.615A2.409,2.409,0,0,0,47,5a1,1,0,0,1-1-1V3.781L47.526,3.4a3,3,0,0,1,2.391.414l8.747,5.832A2.993,2.993,0,0,1,60,12.141v4.97a7.031,7.031,0,0,1-.739,3.131l-2.656,5.311,1.79.894,2.655-5.311A9.05,9.05,0,0,0,62,17.111v-4.97A4.992,4.992,0,0,0,59.773,7.98Zm-33.595,34.6a5,5,0,0,0,1.506,1.009A7,7,0,0,1,24,45a2.372,2.372,0,0,1-2.064-1.493A4.3,4.3,0,0,0,24,44,2.816,2.816,0,0,0,26.178,42.582ZM29.657,42a3.017,3.017,0,0,1-2.121-.879l-.373-.372c.2-.468.352-.918.476-1.311l.492.246A3.014,3.014,0,0,0,29.472,40h5.056a3.022,3.022,0,0,0,1.342-.316l.491-.246c.124.393.281.843.476,1.311l-.373.372A3.017,3.017,0,0,1,34.343,42Zm-1.2-4.388.118-.176.068.269ZM29,27v1.219a.271.271,0,0,1-.006.062L28,28.613V28c0-1.654,1.794-3,4-3s4,1.346,4,3v.613l-.994-.332A.271.271,0,0,1,35,28.219V27H33v1.219a1.965,1.965,0,0,0,1.251,1.919l.378.126-2.629.7-2.629-.7.378-.126A1.965,1.965,0,0,0,31,28.219V27Zm3,8.054,1.8.6L33.219,38H30.781L30.2,35.656Zm3.354,2.651.068-.269.118.176Zm2.468,4.877A2.816,2.816,0,0,0,40,44a4.3,4.3,0,0,0,2.064-.493A2.372,2.372,0,0,1,40,45a7,7,0,0,1-3.684-1.409A5,5,0,0,0,37.822,42.582ZM32,22c6.065,0,11,5.832,11,13a14.606,14.606,0,0,1-.7,5.242l-.136.2.04.027A2.239,2.239,0,0,1,40.022,42c-.476-.123-1.544-1.948-2.045-4.218l-.01,0a1.014,1.014,0,0,0-.135-.341l-2-3a.992.992,0,0,0-.518-.385l0-.008L33,33.279v-.511l3.31-.883A2.318,2.318,0,0,0,38,29.625V28c0-2.757-2.691-5-6-5s-6,2.243-6,5v1.625a2.318,2.318,0,0,0,1.689,2.26L31,32.768v.512l-2.316.772,0,.007a.989.989,0,0,0-.518.386l-2,3a1.014,1.014,0,0,0-.135.341l-.01,0c-.5,2.27-1.569,4.095-2.023,4.216a2.251,2.251,0,0,1-2.207-1.529l.039-.026-.131-.2A14.507,14.507,0,0,1,21,35C21,27.832,25.935,22,32,22ZM17.168,37.055l1.857,2.786C19.229,43.528,20.789,47,24,47c2.817,0,5.5-2.194,6.4-3H33.6c.893.806,3.578,3,6.4,3,3.211,0,4.771-3.472,4.975-7.159L49.4,33.2l1,1.332a3.02,3.02,0,0,1,.6,1.8v1.219a3.007,3.007,0,0,1-.7,1.92L41.429,50.123,34.86,52H29.14l-6.569-1.877L13.7,39.472a3.007,3.007,0,0,1-.7-1.92V36.333a3.02,3.02,0,0,1,.6-1.8l1-1.332Z"/><rect width="2.118" height="2" x="12.85" y="11" transform="rotate(-70.787 13.91 12)"/><path d="M58.925,53.1a11.934,11.934,0,0,0-4.038-6.068,10.043,10.043,0,0,1-2.758-3.461l-1.8.868a12.051,12.051,0,0,0,3.31,4.156A9.938,9.938,0,0,1,57,53.646l.652,2.282A9.02,9.02,0,0,1,58,58.4V62H6V58.4a9.02,9.02,0,0,1,.346-2.472L7,53.646a9.938,9.938,0,0,1,3.364-5.055,12.062,12.062,0,0,0,3.311-4.155l-1.8-.87a10.037,10.037,0,0,1-2.758,3.462A11.933,11.933,0,0,0,5.075,53.1l-.652,2.282A11.02,11.02,0,0,0,4,58.4V63a1,1,0,0,0,1,1H59a1,1,0,0,0,1-1V58.4a11.02,11.02,0,0,0-.423-3.021Z"/></g></svg>